Normalized EMG Linear Envelopes
nRows=231
nColumns=4

endheader
time	 med_gas_r	  soleus_r	 tib_ant_r	
2.79435	  0.012659	  0.012074	  0.007496	
2.82762	  0.012466	  0.011963	  0.007616	
2.86089	  0.012130	  0.011852	  0.007385	
2.89415	  0.011771	  0.011747	  0.006892	
2.92742	  0.011456	  0.011642	  0.006305	
2.96069	  0.011186	  0.011547	  0.005737	
2.99395	  0.010945	  0.011474	  0.005270	
3.02722	  0.010710	  0.011426	  0.004944	
3.06048	  0.010455	  0.011412	  0.004754	
3.09375	  0.010224	  0.011442	  0.004659	
3.12702	  0.010061	  0.011528	  0.004617	
3.16028	  0.010006	  0.011670	  0.004591	
3.19355	  0.010072	  0.011874	  0.004527	
3.22681	  0.010213	  0.012131	  0.004409	
3.26008	  0.010358	  0.012394	  0.004283	
3.29335	  0.010478	  0.012596	  0.004194	
3.32661	  0.010596	  0.012686	  0.004171	
3.35988	  0.010705	  0.012673	  0.004233	
3.39315	  0.010793	  0.012605	  0.004378	
3.42641	  0.010858	  0.012534	  0.004580	
3.45968	  0.010884	  0.012507	  0.004836	
3.49294	  0.010869	  0.012544	  0.005153	
3.52621	  0.010805	  0.012636	  0.005538	
3.55948	  0.010714	  0.012786	  0.005976	
3.59274	  0.010619	  0.012964	  0.006422	
3.62601	  0.010531	  0.013123	  0.006798	
3.65927	  0.010436	  0.013198	  0.006964	
3.69254	  0.010314	  0.013135	  0.006838	
3.72581	  0.010183	  0.012951	  0.006520	
3.75907	  0.010084	  0.012658	  0.006157	
3.79234	  0.010056	  0.012300	  0.005829	
3.8256	  0.010136	  0.011970	  0.005578	
3.85887	  0.010347	  0.011720	  0.005433	
3.89214	  0.010672	  0.011571	  0.005409	
3.9254	  0.011035	  0.011529	  0.005532	
3.95867	  0.011360	  0.011588	  0.005829	
3.99194	  0.011562	  0.011720	  0.006345	
4.0252	  0.011610	  0.011875	  0.007070	
4.05847	  0.011544	  0.012006	  0.007922	
4.09173	  0.011458	  0.012076	  0.008743	
4.125	  0.011414	  0.012067	  0.009300	
4.15827	  0.011394	  0.011967	  0.009483	
4.19153	  0.011324	  0.011801	  0.009324	
4.2248	  0.011149	  0.011605	  0.008855	
4.25806	  0.010856	  0.011407	  0.008017	
4.29133	  0.010480	  0.011224	  0.006661	
4.3246	  0.010106	  0.011074	  0.004795	
4.35786	  0.009810	  0.010981	  0.002686	
4.39113	  0.009673	  0.010949	  0.000749	
4.4244	  0.009739	  0.010996	 -0.000528	
4.45766	  0.010017	  0.011142	 -0.000562	
4.49093	  0.010461	  0.011386	  0.001348	
4.52419	  0.011006	  0.011713	  0.006030	
4.55746	  0.011579	  0.012085	  0.014379	
4.59073	  0.012129	  0.012463	  0.027215	
4.62399	  0.012630	  0.012853	  0.045046	
4.65726	  0.013140	  0.013297	  0.067711	
4.69052	  0.013753	  0.013806	  0.093841	
4.72379	  0.014496	  0.014364	  0.120565	
4.75706	  0.015295	  0.014927	  0.144236	
4.79032	  0.016080	  0.015417	  0.162475	
4.82359	  0.016782	  0.015802	  0.176156	
4.85685	  0.017313	  0.016161	  0.187261	
4.89012	  0.017689	  0.016711	  0.198734	
4.92339	  0.018054	  0.017694	  0.212150	
4.95665	  0.018642	  0.019331	  0.227484	
4.98992	  0.019699	  0.021834	  0.246542	
5.02319	  0.021423	  0.025354	  0.271097	
5.05645	  0.023977	  0.029895	  0.301482	
5.08972	  0.027391	  0.035490	  0.337238	
5.12298	  0.031737	  0.042256	  0.376646	
5.15625	  0.036942	  0.050089	  0.417426	
5.18952	  0.042900	  0.058731	  0.457141	
5.22278	  0.049294	  0.067848	  0.493849	
5.25605	  0.055657	  0.077172	  0.527973	
5.28931	  0.061184	  0.086385	  0.561050	
5.32258	  0.065454	  0.094958	  0.594989	
5.35585	  0.068759	  0.102475	  0.630937	
5.38911	  0.071964	  0.109231	  0.668827	
5.42238	  0.075820	  0.115735	  0.704586	
5.45565	  0.080667	  0.122296	  0.733409	
5.48891	  0.086251	  0.129281	  0.752013	
5.52218	  0.091707	  0.136599	  0.762805	
5.55544	  0.096054	  0.143146	  0.770237	
5.58871	  0.099231	  0.148069	  0.775418	
5.62198	  0.101814	  0.151553	  0.778035	
5.65524	  0.104726	  0.154921	  0.780489	
5.68851	  0.108416	  0.158910	  0.783999	
5.72177	  0.113223	  0.163774	  0.786788	
5.75504	  0.119034	  0.168964	  0.788761	
5.78831	  0.124710	  0.172973	  0.792208	
5.82157	  0.128689	  0.174217	  0.798572	
5.85484	  0.129984	  0.172182	  0.806759	
5.8881	  0.129686	  0.168567	  0.813670	
5.92137	  0.129720	  0.165967	  0.818220	
5.95464	  0.130812	  0.165684	  0.820030	
5.9879	  0.132771	  0.167436	  0.817220	
6.02117	  0.135420	  0.170863	  0.809462	
6.05444	  0.138552	  0.175726	  0.800184	
6.0877	  0.141224	  0.180763	  0.792483	
6.12097	  0.142431	  0.184538	  0.790444	
6.15423	  0.141430	  0.186059	  0.796549	
6.1875	  0.138751	  0.185714	  0.807830	
6.22077	  0.134823	  0.183731	  0.817616	
6.25403	  0.129322	  0.179989	  0.822160	
6.2873	  0.122219	  0.174190	  0.826315	
6.32056	  0.114021	  0.166724	  0.834613	
6.35383	  0.106279	  0.158857	  0.851389	
6.3871	  0.100770	  0.152491	  0.877981	
6.42036	  0.098354	  0.148677	  0.908586	
6.45363	  0.098598	  0.147618	  0.938878	
6.4869	  0.100343	  0.148925	  0.965566	
6.52016	  0.102688	  0.151383	  0.986704	
6.55343	  0.104392	  0.152435	  0.999168	
6.58669	  0.105178	  0.150704	  0.995720	
6.61996	  0.105729	  0.147222	  0.974426	
6.65323	  0.106295	  0.143762	  0.935160	
6.68649	  0.107321	  0.141847	  0.882396	
6.71976	  0.109597	  0.142256	  0.826431	
6.75302	  0.113424	  0.145013	  0.777184	
6.78629	  0.118635	  0.149464	  0.743033	
6.81956	  0.124626	  0.154358	  0.727603	
6.85282	  0.130159	  0.157729	  0.731485	
6.88609	  0.134415	  0.158537	  0.754487	
6.91935	  0.137136	  0.157050	  0.791476	
6.95262	  0.138570	  0.154346	  0.836244	
6.98589	  0.139017	  0.151420	  0.884993	
7.01915	  0.138222	  0.148700	  0.931622	
7.05242	  0.135685	  0.145853	  0.967564	
7.08569	  0.131788	  0.143159	  0.986917	
7.11895	  0.127316	  0.141452	  0.988944	
7.15222	  0.123548	  0.141892	  0.977997	
7.18548	  0.121562	  0.144842	  0.963028	
7.21875	  0.121843	  0.149410	  0.949909	
7.25202	  0.123668	  0.154020	  0.937363	
7.28528	  0.125993	  0.158050	  0.928210	
7.31855	  0.127635	  0.161597	  0.924812	
7.35181	  0.127898	  0.164540	  0.927148	
7.38508	  0.127051	  0.166629	  0.932703	
7.41835	  0.125928	  0.167509	  0.933471	
7.45161	  0.124803	  0.166982	  0.920472	
7.48488	  0.123711	  0.166148	  0.892500	
7.51815	  0.122421	  0.165282	  0.853697	
7.55141	  0.120549	  0.163834	  0.811766	
7.58468	  0.117823	  0.161015	  0.775422	
7.61794	  0.114251	  0.156962	  0.753426	
7.65121	  0.110656	  0.153196	  0.747926	
7.68448	  0.107866	  0.150419	  0.753694	
7.71774	  0.106063	  0.148032	  0.766248	
7.75101	  0.104762	  0.144727	  0.780327	
7.78427	  0.103553	  0.139892	  0.787090	
7.81754	  0.102973	  0.134641	  0.781752	
7.85081	  0.103577	  0.130667	  0.765255	
7.88407	  0.105867	  0.129460	  0.742530	
7.91734	  0.110243	  0.131719	  0.722904	
7.9506	  0.116253	  0.136693	  0.709500	
7.98387	  0.122505	  0.143029	  0.700779	
8.01714	  0.127277	  0.149333	  0.696169	
8.0504	  0.129482	  0.155642	  0.695995	
8.08367	  0.128335	  0.161032	  0.701136	
8.11694	  0.124848	  0.164573	  0.716719	
8.1502	  0.120524	  0.166240	  0.743290	
8.18347	  0.116391	  0.166644	  0.776924	
8.21673	  0.112844	  0.166362	  0.807102	
8.25	  0.109594	  0.165160	  0.819781	
8.28327	  0.106736	  0.163084	  0.809879	
8.31653	  0.104579	  0.160220	  0.788825	
8.3498	  0.103069	  0.156059	  0.765261	
8.38306	  0.101972	  0.151004	  0.744368	
8.41633	  0.101144	  0.146122	  0.730139	
8.4496	  0.100470	  0.142055	  0.722668	
8.48286	  0.099843	  0.138720	  0.722932	
8.51613	  0.099197	  0.135674	  0.728324	
8.5494	  0.098510	  0.132744	  0.734196	
8.58266	  0.097642	  0.129603	  0.737588	
8.61593	  0.096781	  0.126320	  0.737605	
8.64919	  0.096517	  0.123447	  0.734236	
8.68246	  0.097216	  0.121072	  0.724944	
8.71573	  0.098778	  0.119069	  0.708981	
8.74899	  0.100821	  0.117934	  0.689015	
8.78226	  0.102870	  0.117667	  0.668648	
8.81552	  0.104985	  0.118221	  0.651603	
8.84879	  0.106935	  0.120016	  0.639265	
8.88206	  0.107940	  0.122812	  0.632153	
8.91532	  0.107842	  0.126199	  0.632343	
8.94859	  0.107294	  0.130265	  0.640644	
8.98185	  0.106740	  0.134500	  0.654776	
9.01512	  0.106135	  0.138121	  0.670969	
9.04839	  0.104958	  0.140178	  0.682601	
9.08165	  0.103334	  0.140802	  0.689407	
9.11492	  0.101144	  0.139934	  0.691244	
9.14819	  0.098638	  0.137303	  0.686908	
9.18145	  0.096260	  0.133275	  0.676797	
9.21472	  0.094277	  0.128937	  0.666625	
9.24798	  0.092963	  0.125751	  0.662561	
9.28125	  0.092320	  0.124089	  0.665826	
9.31452	  0.091655	  0.122895	  0.676024	
9.34778	  0.090443	  0.120952	  0.694430	
9.38105	  0.088816	  0.118123	  0.719997	
9.41431	  0.087358	  0.115254	  0.750357	
9.44758	  0.086401	  0.113596	  0.786918	
9.48085	  0.085369	  0.113115	  0.825274	
9.51411	  0.084060	  0.113190	  0.860201	
9.54738	  0.082429	  0.113221	  0.884826	
9.58065	  0.080660	  0.112938	  0.889993	
9.61391	  0.079111	  0.112662	  0.870134	
9.64718	  0.077805	  0.112530	  0.828802	
9.68044	  0.076591	  0.112676	  0.780812	
9.71371	  0.075374	  0.113088	  0.739508	
9.74698	  0.074203	  0.113744	  0.709325	
9.78024	  0.073413	  0.114895	  0.685998	
9.81351	  0.073295	  0.116393	  0.662442	
9.84677	  0.073888	  0.117517	  0.634573	
9.88004	  0.074993	  0.118129	  0.603598	
9.91331	  0.076079	  0.118110	  0.571146	
9.94657	  0.076484	  0.117065	  0.539878	
9.97984	  0.075208	  0.114043	  0.513375	
10.0131	  0.072421	  0.109301	  0.498200	
10.0464	  0.069203	  0.104547	  0.503423	
10.0796	  0.066348	  0.100472	  0.532345	
10.1129	  0.064783	  0.097493	  0.582357	
10.1462	  0.064955	  0.095576	  0.647068	
10.1794	  0.066668	  0.094344	  0.721063	
10.2127	  0.069276	  0.093814	  0.796628	
10.246	  0.071788	  0.093482	  0.864242	
10.2792	  0.073533	  0.092851	  0.913458	
10.3125	  0.074184	  0.091954	  0.935744	
10.3458	  0.073273	  0.090368	  0.927961	
10.379	  0.070830	  0.087522	  0.888326	
10.4123	  0.067124	  0.083336	  0.823741	
10.4456	  0.062566	  0.078128	  0.747250	
